<?xml version="1.0" standalone="no"?>
<!DOCTYPE svg PUBLIC "-//W3C//DTD SVG 20010904//EN"
 "http://www.w3.org/TR/2001/REC-SVG-20010904/DTD/svg10.dtd">
<svg version="1.0" xmlns="http://www.w3.org/2000/svg"
 width="100.000000pt" height="100.000000pt" viewBox="0 0 100.000000 100.000000"
 preserveAspectRatio="xMidYMid meet">
<metadata>
Created by potrace 1.11, written by Peter Selinger 2001-2013
</metadata>
<g transform="translate(0.000000,100.000000) scale(0.100000,-0.100000)"
fill="#000000" stroke="none">
<path d="M40 760 c-19 -19 -20 -33 -20 -260 0 -227 1 -241 20 -260 13 -13 33
-20 60 -20 33 0 40 -3 40 -20 0 -18 7 -20 60 -20 53 0 60 2 60 20 0 19 7 20
240 20 233 0 240 -1 240 -20 0 -18 7 -20 60 -20 53 0 60 2 60 20 0 17 7 20 40
20 27 0 47 7 60 20 19 19 20 33 20 260 0 227 -1 241 -20 260 -19 19 -33 20
-460 20 -427 0 -441 -1 -460 -20z m180 -260 c0 -153 -1 -160 -20 -160 -19 0
-20 7 -20 160 0 153 1 160 20 160 19 0 20 -7 20 -160z m218 123 c2 -17 -5 -51
-16 -75 -10 -24 -34 -80 -52 -125 -24 -63 -37 -83 -51 -83 -11 0 -19 2 -19 5
0 3 23 62 50 132 28 70 50 131 50 135 0 4 -22 8 -50 8 -44 0 -50 3 -50 20 0
19 5 21 68 18 l67 -3 3 -32z m242 17 c18 -18 20 -33 20 -140 0 -107 -2 -122
-20 -140 -26 -26 -74 -26 -100 0 -18 18 -20 33 -20 140 0 107 2 122 20 140 11
11 33 20 50 20 17 0 39 -9 50 -20z m180 0 c18 -18 20 -33 20 -140 0 -107 -2
-122 -20 -140 -26 -26 -74 -26 -100 0 -18 18 -20 33 -20 140 0 107 2 122 20
140 11 11 33 20 50 20 17 0 39 -9 50 -20z m-340 -60 c0 -13 -7 -20 -20 -20
-13 0 -20 7 -20 20 0 13 7 20 20 20 13 0 20 -7 20 -20z m0 -160 c0 -13 -7 -20
-20 -20 -13 0 -20 7 -20 20 0 13 7 20 20 20 13 0 20 -7 20 -20z"/>
<path d="M605 608 c-3 -8 -4 -61 -3 -119 3 -104 3 -104 28 -104 l25 0 0 115
c0 112 -1 115 -23 118 -12 2 -24 -3 -27 -10z"/>
<path d="M785 608 c-3 -8 -4 -61 -3 -119 3 -104 3 -104 28 -104 l25 0 0 115
c0 112 -1 115 -23 118 -12 2 -24 -3 -27 -10z"/>
</g>
</svg>
